<mxfile host="app.diagrams.net" modified="2021-04-16T05:28:50.697Z" agent="5.0 (Windows NT 10.0; Win64; x64) AppleWebKit/537.36 (KHTML, like Gecko) Chrome/89.0.4389.114 Safari/537.36" etag="R4TJTAcdrZrsJZ322V2b" version="14.4.9" type="github">
  <diagram id="Ft2sR2jroVmX_vyjOrhT" name="Page-1">
    <mxGraphModel dx="2568" dy="935" grid="1" gridSize="10" guides="1" tooltips="1" connect="1" arrows="1" fold="1" page="1" pageScale="1" pageWidth="850" pageHeight="1100" math="0" shadow="0">
      <root>
        <mxCell id="0" />
        <mxCell id="1" parent="0" />
        <mxCell id="GBtke_XQPbArfGTjS7kq-27" value="" style="shape=ext;double=1;rounded=1;whiteSpace=wrap;html=1;" parent="1" vertex="1">
          <mxGeometry x="-80" y="335" width="570" height="755" as="geometry" />
        </mxCell>
        <mxCell id="GBtke_XQPbArfGTjS7kq-21" value="" style="edgeStyle=orthogonalEdgeStyle;rounded=0;orthogonalLoop=1;jettySize=auto;html=1;startArrow=classic;startFill=1;" parent="1" source="GBtke_XQPbArfGTjS7kq-1" target="GBtke_XQPbArfGTjS7kq-12" edge="1">
          <mxGeometry relative="1" as="geometry" />
        </mxCell>
        <mxCell id="GBtke_XQPbArfGTjS7kq-1" value="Configuration" style="shape=internalStorage;whiteSpace=wrap;html=1;backgroundOutline=1;" parent="1" vertex="1">
          <mxGeometry x="-110" y="110" width="80" height="80" as="geometry" />
        </mxCell>
        <mxCell id="GBtke_XQPbArfGTjS7kq-2" value="Job" style="icon;html=1;image=img/clipart/Gear_128x128.png" parent="1" vertex="1">
          <mxGeometry x="346" y="120" width="60" height="60" as="geometry" />
        </mxCell>
        <mxCell id="GBtke_XQPbArfGTjS7kq-8" value="Job" style="icon;html=1;image=img/clipart/Gear_128x128.png" parent="1" vertex="1">
          <mxGeometry x="346" y="10" width="60" height="60" as="geometry" />
        </mxCell>
        <mxCell id="GBtke_XQPbArfGTjS7kq-9" value="Job" style="icon;html=1;image=img/clipart/Gear_128x128.png" parent="1" vertex="1">
          <mxGeometry x="346" y="230" width="60" height="60" as="geometry" />
        </mxCell>
        <mxCell id="GBtke_XQPbArfGTjS7kq-22" value="" style="edgeStyle=orthogonalEdgeStyle;rounded=0;orthogonalLoop=1;jettySize=auto;html=1;startArrow=none;startFill=0;" parent="1" source="GBtke_XQPbArfGTjS7kq-12" target="GBtke_XQPbArfGTjS7kq-2" edge="1">
          <mxGeometry relative="1" as="geometry" />
        </mxCell>
        <mxCell id="GBtke_XQPbArfGTjS7kq-12" value="Scheduler" style="html=1;whiteSpace=wrap;container=1;recursiveResize=0;collapsible=0;" parent="1" vertex="1">
          <mxGeometry x="70" y="115" width="160" height="70" as="geometry" />
        </mxCell>
        <mxCell id="GBtke_XQPbArfGTjS7kq-13" value="" style="triangle;html=1;whiteSpace=wrap;" parent="GBtke_XQPbArfGTjS7kq-12" vertex="1">
          <mxGeometry x="20" y="20" width="20" height="30" as="geometry" />
        </mxCell>
        <mxCell id="GBtke_XQPbArfGTjS7kq-23" value="Read" style="text;html=1;strokeColor=none;fillColor=none;align=center;verticalAlign=middle;whiteSpace=wrap;rounded=0;" parent="1" vertex="1">
          <mxGeometry y="150" width="40" height="20" as="geometry" />
        </mxCell>
        <mxCell id="GBtke_XQPbArfGTjS7kq-24" value="Create" style="text;html=1;strokeColor=none;fillColor=none;align=center;verticalAlign=middle;whiteSpace=wrap;rounded=0;" parent="1" vertex="1">
          <mxGeometry x="240" y="150" width="40" height="20" as="geometry" />
        </mxCell>
        <mxCell id="GBtke_XQPbArfGTjS7kq-25" value="" style="edgeStyle=orthogonalEdgeStyle;rounded=0;orthogonalLoop=1;jettySize=auto;html=1;startArrow=none;startFill=0;entryX=0;entryY=0.5;entryDx=0;entryDy=0;exitX=1;exitY=0.5;exitDx=0;exitDy=0;" parent="1" source="GBtke_XQPbArfGTjS7kq-12" target="GBtke_XQPbArfGTjS7kq-8" edge="1">
          <mxGeometry relative="1" as="geometry">
            <mxPoint x="240" y="160" as="sourcePoint" />
            <mxPoint x="356" y="160" as="targetPoint" />
          </mxGeometry>
        </mxCell>
        <mxCell id="GBtke_XQPbArfGTjS7kq-26" value="" style="edgeStyle=orthogonalEdgeStyle;rounded=0;orthogonalLoop=1;jettySize=auto;html=1;startArrow=none;startFill=0;entryX=0;entryY=0.5;entryDx=0;entryDy=0;exitX=1;exitY=0.5;exitDx=0;exitDy=0;" parent="1" source="GBtke_XQPbArfGTjS7kq-12" target="GBtke_XQPbArfGTjS7kq-9" edge="1">
          <mxGeometry relative="1" as="geometry">
            <mxPoint x="240" y="160" as="sourcePoint" />
            <mxPoint x="356" y="50" as="targetPoint" />
          </mxGeometry>
        </mxCell>
        <mxCell id="GBtke_XQPbArfGTjS7kq-30" style="edgeStyle=orthogonalEdgeStyle;rounded=0;orthogonalLoop=1;jettySize=auto;html=1;startArrow=none;startFill=0;" parent="1" source="GBtke_XQPbArfGTjS7kq-28" edge="1">
          <mxGeometry relative="1" as="geometry">
            <mxPoint x="-81" y="630" as="targetPoint" />
          </mxGeometry>
        </mxCell>
        <mxCell id="GBtke_XQPbArfGTjS7kq-28" value="Splunk" style="shape=document;whiteSpace=wrap;html=1;boundedLbl=1;" parent="1" vertex="1">
          <mxGeometry x="-350" y="590" width="120" height="80" as="geometry" />
        </mxCell>
        <mxCell id="GBtke_XQPbArfGTjS7kq-39" style="edgeStyle=orthogonalEdgeStyle;rounded=0;orthogonalLoop=1;jettySize=auto;html=1;exitX=0.5;exitY=0;exitDx=0;exitDy=0;startArrow=classic;startFill=1;endArrow=none;endFill=0;" parent="1" source="GBtke_XQPbArfGTjS7kq-43" edge="1">
          <mxGeometry relative="1" as="geometry">
            <mxPoint x="150" y="420" as="sourcePoint" />
            <mxPoint x="-20" y="630" as="targetPoint" />
            <Array as="points">
              <mxPoint x="436" y="420" />
              <mxPoint x="-20" y="420" />
            </Array>
          </mxGeometry>
        </mxCell>
        <mxCell id="FpgfY0AP3RiLUxBzUyEr-7" value="Historical Metric" style="edgeLabel;html=1;align=center;verticalAlign=middle;resizable=0;points=[];" vertex="1" connectable="0" parent="GBtke_XQPbArfGTjS7kq-39">
          <mxGeometry x="-0.4269" relative="1" as="geometry">
            <mxPoint x="-326.69" as="offset" />
          </mxGeometry>
        </mxCell>
        <mxCell id="GBtke_XQPbArfGTjS7kq-34" value="Predict with Prophet" style="rounded=1;whiteSpace=wrap;html=1;absoluteArcSize=1;arcSize=14;strokeWidth=2;" parent="1" vertex="1">
          <mxGeometry x="150" y="580" width="100" height="100" as="geometry" />
        </mxCell>
        <mxCell id="GBtke_XQPbArfGTjS7kq-44" value="" style="edgeStyle=orthogonalEdgeStyle;rounded=0;orthogonalLoop=1;jettySize=auto;html=1;startArrow=none;startFill=0;endArrow=classic;endFill=1;exitX=1;exitY=0.5;exitDx=0;exitDy=0;" parent="1" source="GBtke_XQPbArfGTjS7kq-34" target="GBtke_XQPbArfGTjS7kq-43" edge="1">
          <mxGeometry relative="1" as="geometry">
            <mxPoint x="310" y="630" as="sourcePoint" />
          </mxGeometry>
        </mxCell>
        <mxCell id="FpgfY0AP3RiLUxBzUyEr-11" value="Future Metric" style="edgeLabel;html=1;align=center;verticalAlign=middle;resizable=0;points=[];" vertex="1" connectable="0" parent="GBtke_XQPbArfGTjS7kq-44">
          <mxGeometry x="-0.1238" y="1" relative="1" as="geometry">
            <mxPoint as="offset" />
          </mxGeometry>
        </mxCell>
        <mxCell id="GBtke_XQPbArfGTjS7kq-42" style="edgeStyle=orthogonalEdgeStyle;rounded=0;orthogonalLoop=1;jettySize=auto;html=1;exitX=0;exitY=0.5;exitDx=0;exitDy=0;startArrow=classic;startFill=1;endArrow=none;endFill=0;" parent="1" source="GBtke_XQPbArfGTjS7kq-34" edge="1">
          <mxGeometry relative="1" as="geometry">
            <mxPoint x="-110" y="575" as="sourcePoint" />
            <mxPoint x="-80" y="515" as="targetPoint" />
            <Array as="points">
              <mxPoint x="30" y="630" />
              <mxPoint x="-80" y="630" />
            </Array>
          </mxGeometry>
        </mxCell>
        <mxCell id="FpgfY0AP3RiLUxBzUyEr-8" value="Historical Metric" style="edgeLabel;html=1;align=center;verticalAlign=middle;resizable=0;points=[];" vertex="1" connectable="0" parent="GBtke_XQPbArfGTjS7kq-42">
          <mxGeometry x="-0.3687" y="1" relative="1" as="geometry">
            <mxPoint as="offset" />
          </mxGeometry>
        </mxCell>
        <mxCell id="GBtke_XQPbArfGTjS7kq-43" value="InfluxDB" style="shape=cylinder;whiteSpace=wrap;html=1;boundedLbl=1;backgroundOutline=1;rounded=1;strokeWidth=2;arcSize=14;" parent="1" vertex="1">
          <mxGeometry x="406" y="590" width="60" height="80" as="geometry" />
        </mxCell>
        <mxCell id="FpgfY0AP3RiLUxBzUyEr-6" value="" style="edgeStyle=orthogonalEdgeStyle;rounded=0;orthogonalLoop=1;jettySize=auto;html=1;" edge="1" parent="1" source="FpgfY0AP3RiLUxBzUyEr-1" target="FpgfY0AP3RiLUxBzUyEr-5">
          <mxGeometry relative="1" as="geometry" />
        </mxCell>
        <mxCell id="FpgfY0AP3RiLUxBzUyEr-1" value="Compare" style="rounded=1;whiteSpace=wrap;html=1;absoluteArcSize=1;arcSize=14;strokeWidth=2;" vertex="1" parent="1">
          <mxGeometry x="150" y="790" width="100" height="100" as="geometry" />
        </mxCell>
        <mxCell id="FpgfY0AP3RiLUxBzUyEr-3" style="edgeStyle=orthogonalEdgeStyle;rounded=0;orthogonalLoop=1;jettySize=auto;html=1;exitX=0;exitY=0.5;exitDx=0;exitDy=0;startArrow=classic;startFill=1;endArrow=none;endFill=0;" edge="1" parent="1" source="FpgfY0AP3RiLUxBzUyEr-1">
          <mxGeometry relative="1" as="geometry">
            <mxPoint x="160" y="430" as="sourcePoint" />
            <mxPoint x="-20" y="630" as="targetPoint" />
          </mxGeometry>
        </mxCell>
        <mxCell id="FpgfY0AP3RiLUxBzUyEr-9" value="Current Metric" style="edgeLabel;html=1;align=center;verticalAlign=middle;resizable=0;points=[];" vertex="1" connectable="0" parent="FpgfY0AP3RiLUxBzUyEr-3">
          <mxGeometry x="-0.4051" y="1" relative="1" as="geometry">
            <mxPoint as="offset" />
          </mxGeometry>
        </mxCell>
        <mxCell id="FpgfY0AP3RiLUxBzUyEr-4" value="" style="edgeStyle=orthogonalEdgeStyle;rounded=0;orthogonalLoop=1;jettySize=auto;html=1;startArrow=none;startFill=0;entryX=1;entryY=0.5;entryDx=0;entryDy=0;exitX=0.5;exitY=1;exitDx=0;exitDy=0;" edge="1" parent="1" source="GBtke_XQPbArfGTjS7kq-43" target="FpgfY0AP3RiLUxBzUyEr-1">
          <mxGeometry relative="1" as="geometry">
            <mxPoint x="260" y="430" as="sourcePoint" />
            <mxPoint x="446" y="600" as="targetPoint" />
          </mxGeometry>
        </mxCell>
        <mxCell id="FpgfY0AP3RiLUxBzUyEr-10" value="Predicted Metric" style="edgeLabel;html=1;align=center;verticalAlign=middle;resizable=0;points=[];" vertex="1" connectable="0" parent="FpgfY0AP3RiLUxBzUyEr-4">
          <mxGeometry x="0.4146" y="-1" relative="1" as="geometry">
            <mxPoint x="-24.28" y="1" as="offset" />
          </mxGeometry>
        </mxCell>
        <mxCell id="FpgfY0AP3RiLUxBzUyEr-5" value="Slack" style="ellipse;whiteSpace=wrap;html=1;aspect=fixed;" vertex="1" parent="1">
          <mxGeometry x="160" y="970" width="80" height="80" as="geometry" />
        </mxCell>
      </root>
    </mxGraphModel>
  </diagram>
</mxfile>
